<svg width="134" height="60" viewBox="0 0 134 60" fill="none" xmlns="http://www.w3.org/2000/svg">
<path d="M110 33C110 40.1797 104.18 46 97 46C89.8203 46 84 40.1797 84 33C84 25.8203 89.8203 20 97 20C104.18 20 110 25.8203 110 33Z" fill="url(#paint0_linear_14_18)"/>
<rect x="88.1111" y="33.7962" width="2.88889" height="9.62963" transform="rotate(-45 88.1111 33.7962)" fill="#FAFAFA"/>
<rect x="104.947" y="26.7407" width="2.88889" height="16.8519" transform="rotate(45 104.947 26.7407)" fill="#FAFAFA"/>
<path d="M21.76 16.08V20.6H14.32V44H8.72V20.6H1.28V16.08H21.76ZM38.8059 44.28C36.1926 44.28 33.7926 43.6667 31.6059 42.44C29.4193 41.2133 27.6859 39.52 26.4059 37.36C25.1259 35.1733 24.4859 32.7067 24.4859 29.96C24.4859 27.24 25.1259 24.8 26.4059 22.64C27.6859 20.4533 29.4193 18.7467 31.6059 17.52C33.7926 16.2933 36.1926 15.68 38.8059 15.68C41.4459 15.68 43.8459 16.2933 46.0059 17.52C48.1926 18.7467 49.9126 20.4533 51.1659 22.64C52.4459 24.8 53.0859 27.24 53.0859 29.96C53.0859 32.7067 52.4459 35.1733 51.1659 37.36C49.9126 39.52 48.1926 41.2133 46.0059 42.44C43.8193 43.6667 41.4193 44.28 38.8059 44.28ZM38.8059 39.28C40.4859 39.28 41.9659 38.9067 43.2459 38.16C44.5259 37.3867 45.5259 36.2933 46.2459 34.88C46.9659 33.4667 47.3259 31.8267 47.3259 29.96C47.3259 28.0933 46.9659 26.4667 46.2459 25.08C45.5259 23.6667 44.5259 22.5867 43.2459 21.84C41.9659 21.0933 40.4859 20.72 38.8059 20.72C37.1259 20.72 35.6326 21.0933 34.3259 21.84C33.0459 22.5867 32.0459 23.6667 31.3259 25.08C30.6059 26.4667 30.2459 28.0933 30.2459 29.96C30.2459 31.8267 30.6059 33.4667 31.3259 34.88C32.0459 36.2933 33.0459 37.3867 34.3259 38.16C35.6326 38.9067 37.1259 39.28 38.8059 39.28ZM67.0122 16.08C69.9455 16.08 72.5189 16.6533 74.7322 17.8C76.9722 18.9467 78.6922 20.5867 79.8922 22.72C81.1189 24.8267 81.7322 27.28 81.7322 30.08C81.7322 32.88 81.1189 35.3333 79.8922 37.44C78.6922 39.52 76.9722 41.1333 74.7322 42.28C72.5189 43.4267 69.9455 44 67.0122 44H57.2522V16.08H67.0122ZM66.8122 39.24C69.7455 39.24 72.0122 38.44 73.6122 36.84C75.2122 35.24 76.0122 32.9867 76.0122 30.08C76.0122 27.1733 75.2122 24.9067 73.6122 23.28C72.0122 21.6267 69.7455 20.8 66.8122 20.8H62.8522V39.24H66.8122ZM126.758 44L122.198 37.12L118.158 44H112.158L119.398 32.88L112.078 21.84H118.398L122.918 28.68L126.998 21.84H132.998L125.718 32.88L133.078 44H126.758Z" fill="#09090B"/>
<defs>
<linearGradient id="paint0_linear_14_18" x1="97" y1="20" x2="97" y2="46" gradientUnits="userSpaceOnUse">
<stop offset="0.695" stop-color="#09090B"/>
<stop offset="0.88" stop-color="#27272A"/>
</linearGradient>
</defs>
</svg>
